<svg width="100" height="100" viewBox="0 0 100 100" fill="none" xmlns="http://www.w3.org/2000/svg">
<path d="M49.9998 33.6521C49.9998 33.6521 51.1904 16.5558 59.5564 9.31798C65.2904 4.35756 72.967 5.29349 77.197 9.91074C81.4583 14.528 80.6437 21.0795 74.941 26.0399C66.6064 33.2465 49.9998 33.6521 49.9998 33.6521Z" stroke="black" stroke-width="3" stroke-miterlimit="10" stroke-linecap="round" stroke-linejoin="round"/>
<path d="M50 33.6521C50 33.6521 49.5613 18.8644 42.2293 12.9681C37.2159 8.91239 30.4793 9.69233 26.7506 13.4672C23.0219 17.2421 23.7113 22.6081 28.7246 26.6326C36.088 32.529 44.736 33.4961 50 33.6521Z" stroke="black" stroke-width="3" stroke-miterlimit="10" stroke-linecap="round" stroke-linejoin="round"/>
<path d="M56.4231 93.2083H92.7385V50.6548" stroke="black" stroke-width="3" stroke-miterlimit="10" stroke-linecap="round" stroke-linejoin="round"/>
<path d="M7.29272 50.6548V93.2083H43.6081" stroke="black" stroke-width="3" stroke-miterlimit="10" stroke-linecap="round" stroke-linejoin="round"/>
<path d="M56.4233 50.6548H97V33.6521H3V50.6548H43.608" stroke="black" stroke-width="3" stroke-miterlimit="10" stroke-linecap="round" stroke-linejoin="round"/>
<path d="M56.4235 33.6521H43.6082V93.2083H56.4235V33.6521Z" stroke="black" stroke-width="3" stroke-miterlimit="10" stroke-linecap="round" stroke-linejoin="round"/>
</svg>
