<svg width="100" height="100" viewBox="0 0 100 100" fill="none" xmlns="http://www.w3.org/2000/svg">
<path d="M94.2 48V52.37C94.2 55.22 92.11 57.5 89.45 58.07C77.86 60.16 68.74 69.85 67.79 81.82C67.6 83.53 66.65 85.24 65.13 86C56.58 91.32 44.61 91.32 35.87 86C34.35 85.05 33.4 83.53 33.21 81.82C32.26 69.66 23.14 59.97 11.55 57.88C8.89005 57.31 6.80005 55.03 6.80005 52.18V47.81" stroke="black" stroke-width="3" stroke-linecap="round" stroke-linejoin="round"/>
<path d="M6.8 48H23.9C31.31 48 37.2 42.11 37.2 34.7C37.2 27.29 31.31 21.4 23.9 21.4H6.8C4.71 21.4 3 23.11 3 25.2V44.2C3 46.29 4.71 48 6.8 48Z" stroke="black" stroke-width="3" stroke-linecap="round" stroke-linejoin="round"/>
<path d="M94.2001 48H77.1C69.69 48 63.8 42.11 63.8 34.7C63.8 27.29 69.69 21.4 77.1 21.4H94.2001C96.2901 21.4 98.0001 23.11 98.0001 25.2V44.2C98.0001 46.29 96.2901 48 94.2001 48Z" stroke="black" stroke-width="3" stroke-linecap="round" stroke-linejoin="round"/>
<path d="M6.80005 21.4V15.7C6.80005 12.47 9.27005 10 12.5 10H88.5C91.73 10 94.2 12.47 94.2 15.7V21.4" stroke="black" stroke-width="3" stroke-linecap="round" stroke-linejoin="round"/>
</svg>
