<svg width="100" height="100" viewBox="0 0 100 100" fill="none" xmlns="http://www.w3.org/2000/svg">
<path d="M89.4872 10.1428C87.1725 7.82812 83.3444 4 78.7596 4C77.2461 4 74.9315 4.75672 72.6168 7.0714L33.5344 46.1538C32.11 47.5782 30.9526 49.3142 30.1959 51.1393C27.6587 57.3711 21.0707 72.4165 14.4383 79.0044L5.26862 88.2186C3.57713 89.9101 3.57713 92.6699 5.26862 94.3614C6.96011 96.0529 9.71992 96.0529 11.4114 94.3614L20.5811 85.1917C27.169 78.6038 42.2144 72.0159 48.4462 69.4341C50.3158 68.6774 52.0073 67.52 53.4317 66.0956L92.5586 26.9687C94.8733 24.654 95.63 22.3839 95.63 20.8259C95.63 16.2411 91.8019 12.413 89.4872 10.1428Z" stroke="black" stroke-width="3" stroke-miterlimit="10" stroke-linecap="round" stroke-linejoin="round"/>
<path d="M17.7766 87.996L11.6338 81.8532" stroke="black" stroke-width="3" stroke-miterlimit="10" stroke-linecap="round" stroke-linejoin="round"/>
<path d="M90.3329 29.2388L74.2637 13.1696" stroke="black" stroke-width="3" stroke-miterlimit="10" stroke-linecap="round" stroke-linejoin="round"/>
<path d="M71.949 31.5091C74.0632 31.5091 75.7771 29.7952 75.7771 27.681C75.7771 25.5668 74.0632 23.8528 71.949 23.8528C69.8348 23.8528 68.1208 25.5668 68.1208 27.681C68.1208 29.7952 69.8348 31.5091 71.949 31.5091Z" stroke="black" stroke-width="3" stroke-miterlimit="10" stroke-linecap="round" stroke-linejoin="round"/>
<path d="M51.7844 54.8338C52.363 55.4125 53.3423 55.4125 53.9655 54.8338L67.0523 41.747C67.631 41.1683 67.631 40.189 67.0523 39.5659L60.0638 32.5773C59.4851 31.9986 58.5058 31.9986 57.8826 32.5773L44.7958 45.6641C44.2171 46.2428 44.2171 47.2221 44.7958 47.8453L51.7844 54.8338Z" stroke="black" stroke-width="3" stroke-miterlimit="10" stroke-linecap="round" stroke-linejoin="round"/>
</svg>
