<svg width="77" height="77" viewBox="0 0 77 77" fill="none" xmlns="http://www.w3.org/2000/svg">
<path d="M0.170166 5.25268C0.170166 2.46335 2.43137 0.202148 5.2207 0.202148H71.8877C74.6771 0.202148 76.9383 2.46335 76.9383 5.25268V71.9197C76.9383 74.7091 74.6771 76.9703 71.8877 76.9703H5.2207C2.43137 76.9703 0.170166 74.7091 0.170166 71.9197V5.25268Z" fill="#FFDC00"/>
<path d="M74.354 61.0506C72.512 61.0506 70.6725 61.0506 68.8648 61.0887C64.3956 61.1864 59.9289 61.4485 55.4671 61.8226C48.1008 62.4182 40.7623 63.2537 33.4515 64.329C27.6687 65.1939 21.9202 66.1827 16.2304 67.4812C13.2632 68.1602 10.3254 68.925 7.42421 69.8471L7.23096 69.8995L0.675219 62.9281L1.06905 62.809C4.48435 61.917 7.94561 61.2012 11.4384 60.6646C16.4848 59.8355 21.5998 59.2637 26.7147 58.8301C31.2744 58.4441 35.8439 58.1606 40.4133 58.039C43.7303 57.9294 47.0522 57.85 50.379 57.8008C52.7665 57.765 55.1491 57.777 57.5316 57.8008C59.3149 57.8127 61.1055 57.8484 62.8912 57.8889C64.522 57.9255 66.1625 57.9699 67.8129 58.0224C69.2806 58.07 70.719 58.1343 72.1744 58.2011C73.5321 58.2582 74.8872 58.3321 76.2424 58.3988L76.4332 58.4298" fill="black"/>
<path d="M19.4835 17.5059L14.9583 20.1928V13.8999L22.0644 9.79883H25.2108V34.5464H19.4835V17.5059Z" fill="black"/>
<path d="M36.0749 25.8141H29.782V20.8645H36.0749V14.5716H41.0245V20.8645H47.3174V25.8141H41.0245V32.107H36.0749V25.8141Z" fill="black"/>
<path d="M55.4932 17.5059L50.968 20.1928V13.8999L58.0741 9.79883H61.2205V34.5464H55.4932V17.5059Z" fill="black"/>
<path d="M19.6849 53.7668C18.3926 53.7668 17.3371 53.4917 16.5182 52.9415C15.7121 52.3913 15.3091 51.6045 15.3091 50.5809C15.3091 49.7876 15.5714 49.1479 16.096 48.6617C15.7633 48.265 15.597 47.766 15.597 47.1647C15.597 46.7169 15.6993 46.3202 15.9041 45.9748C16.1216 45.6293 16.4158 45.3479 16.7869 45.1303C16.3391 44.5802 16.1152 43.9148 16.1152 43.1344C16.1152 42.4818 16.2687 41.9125 16.5758 41.4263C16.8956 40.9273 17.3243 40.5434 17.8616 40.2748C18.4118 40.0061 19.0132 39.8717 19.6657 39.8717C20.2926 39.8717 20.8876 40.0125 21.4506 40.294L23.2738 39.3343L24.2142 40.9081L22.8324 41.599C23.0883 42.0468 23.2162 42.5586 23.2162 43.1344C23.2162 43.7869 23.0563 44.3627 22.7364 44.8617C22.4293 45.3479 22.0007 45.7189 21.4506 45.9748C20.9132 46.2307 20.3182 46.3586 19.6657 46.3586C19.1795 46.3586 18.7125 46.2883 18.2647 46.1475C17.9576 46.3266 17.8041 46.5697 17.8041 46.8768C17.8041 47.1071 17.8808 47.2862 18.0344 47.4142C18.1879 47.5293 18.4118 47.5869 18.7061 47.5869H20.6829C21.7192 47.5869 22.5445 47.8364 23.1586 48.3354C23.7728 48.8216 24.0799 49.5189 24.0799 50.4273C24.0799 51.1822 23.8687 51.8092 23.4465 52.3082C23.0371 52.8072 22.4997 53.1718 21.8344 53.4021C21.1691 53.6452 20.4526 53.7668 19.6849 53.7668ZM19.6657 44.4394C20.0495 44.4394 20.363 44.3179 20.6061 44.0748C20.862 43.8317 20.9899 43.5182 20.9899 43.1344C20.9899 42.7377 20.862 42.4179 20.6061 42.1748C20.363 41.9189 20.0495 41.7909 19.6657 41.7909C19.2819 41.7909 18.962 41.9189 18.7061 42.1748C18.463 42.4179 18.3414 42.7377 18.3414 43.1344C18.3414 43.5182 18.463 43.8317 18.7061 44.0748C18.962 44.3179 19.2819 44.4394 19.6657 44.4394ZM19.6849 51.7708C20.299 51.7708 20.7852 51.6748 21.1435 51.4829C21.5145 51.291 21.7 50.9903 21.7 50.5809C21.7 50.2098 21.5657 49.9475 21.297 49.794C21.0283 49.6533 20.6445 49.5829 20.1455 49.5829H18.8404C18.4054 49.5829 18.0344 49.5573 17.7273 49.5061C17.5866 49.7236 17.5162 50.0179 17.5162 50.389C17.5162 50.8368 17.7145 51.1758 18.1111 51.4061C18.5078 51.6492 19.0324 51.7708 19.6849 51.7708Z" fill="black"/>
<path d="M28.0522 40.0253V41.599C28.3976 41.0488 28.8198 40.6266 29.3188 40.3323C29.8178 40.0253 30.3488 39.8717 30.9118 39.8717C31.27 39.8717 31.6603 39.9357 32.0825 40.0636L31.6411 42.2707C31.3468 42.0916 31.0141 42.002 30.6431 42.002C29.8882 42.002 29.2677 42.3475 28.7815 43.0384C28.2953 43.7165 28.0522 44.7913 28.0522 46.2627V49.698H25.6723V40.0253H28.0522Z" fill="black"/>
<path d="M35.5879 49.8516C34.7306 49.8516 34.0269 49.5957 33.4768 49.0839C32.9266 48.5721 32.6515 47.8492 32.6515 46.9152C32.6515 45.9556 33.0161 45.1879 33.7454 44.6122C34.4747 44.0364 35.4599 43.7485 36.701 43.7485H38.3899V43.3263C38.3899 42.8529 38.23 42.501 37.9101 42.2707C37.5902 42.0276 37.1872 41.9061 36.701 41.9061C35.8694 41.9061 35.3128 42.2771 35.0313 43.0192L33.0161 42.5586C33.1697 41.7525 33.5791 41.1064 34.2444 40.6202C34.9226 40.1212 35.7414 39.8717 36.701 39.8717C37.9933 39.8717 38.9913 40.2172 39.695 40.9081C40.4115 41.5862 40.7697 42.5906 40.7697 43.9212V49.698H38.8121L38.5626 48.4698C37.8078 49.391 36.8162 49.8516 35.5879 49.8516ZM36.2212 47.8172C36.797 47.8172 37.3024 47.6381 37.7374 47.2799C38.1724 46.9088 38.3899 46.4226 38.3899 45.8213V45.6293H36.797C36.2724 45.6293 35.863 45.7317 35.5687 45.9364C35.2872 46.1411 35.1465 46.4546 35.1465 46.8768C35.1465 47.1583 35.2424 47.3886 35.4343 47.5677C35.6391 47.7341 35.9013 47.8172 36.2212 47.8172Z" fill="black"/>
<path d="M47.1481 49.8516C46.0349 49.8516 45.1649 49.5509 44.538 48.9496C43.911 48.3482 43.5976 47.459 43.5976 46.2819V42.0596H42.1006V40.0253H43.5976V37.6071L45.9774 36.1101V40.0253H48.5299V42.0596H45.9774V46.2435C45.9774 46.8192 46.0797 47.2287 46.2844 47.4718C46.5019 47.7021 46.8218 47.8172 47.244 47.8172C47.5639 47.8172 47.871 47.7405 48.1653 47.5869L48.7218 49.5061C48.2228 49.7364 47.6982 49.8516 47.1481 49.8516Z" fill="black"/>
<path d="M50.3746 40.0253H52.7544V49.698H50.3746V40.0253ZM51.5645 38.7778C51.1295 38.7778 50.7648 38.6306 50.4705 38.3364C50.1763 38.0421 50.0291 37.6774 50.0291 37.2424C50.0291 36.8074 50.1763 36.4427 50.4705 36.1485C50.7648 35.8542 51.1295 35.7071 51.5645 35.7071C51.9995 35.7071 52.3642 35.8542 52.6584 36.1485C52.9527 36.4427 53.0999 36.8074 53.0999 37.2424C53.0999 37.6774 52.9527 38.0421 52.6584 38.3364C52.3642 38.6306 51.9995 38.7778 51.5645 38.7778Z" fill="black"/>
<path d="M58.3951 49.8516C57.3971 49.8516 56.559 49.5957 55.8809 49.0839C55.2156 48.5721 54.7742 47.958 54.5566 47.2415L56.4567 46.2243C56.6358 46.7233 56.8853 47.1135 57.2051 47.395C57.5378 47.6765 57.928 47.8172 58.3759 47.8172C58.6829 47.8172 58.9452 47.7405 59.1627 47.5869C59.3802 47.4206 59.489 47.1839 59.489 46.8768C59.489 46.5825 59.3227 46.333 58.99 46.1283C58.6573 45.9108 58.1584 45.6741 57.493 45.4182C56.7637 45.1239 56.1944 44.7529 55.7849 44.3051C55.3883 43.8573 55.19 43.2815 55.19 42.5778C55.19 42.0788 55.3179 41.6246 55.5738 41.2152C55.8425 40.8057 56.2072 40.4795 56.6678 40.2364C57.1284 39.9933 57.653 39.8717 58.2415 39.8717C58.894 39.8717 59.489 40.0125 60.0264 40.294C60.5638 40.5626 60.9796 40.9465 61.2739 41.4455L59.8536 42.7505C59.4698 42.1876 58.9516 41.9061 58.2991 41.9061C58.0432 41.9061 57.8193 41.9765 57.6274 42.1172C57.4482 42.2451 57.3587 42.4179 57.3587 42.6354C57.3587 42.8657 57.493 43.0832 57.7617 43.2879C58.0304 43.4798 58.555 43.7165 59.3355 43.998C60.0904 44.2667 60.6725 44.6186 61.0819 45.0536C61.4914 45.4886 61.6961 46.0452 61.6961 46.7233C61.6961 47.6701 61.389 48.4314 60.7749 49.0071C60.1607 49.5701 59.3674 49.8516 58.3951 49.8516Z" fill="black"/>
</svg>
