<svg width="100" height="100" viewBox="0 0 100 100" fill="none" xmlns="http://www.w3.org/2000/svg">
<path d="M40.1813 41.8795C57.5368 42.3525 71.1552 46.7672 71.1552 52.1279V78.8682C71.1552 84.5442 55.8899 89.1481 37.0776 89.1481C18.2652 89.1481 3 84.5442 3 78.8682V52.1279C3 48.943 7.81393 46.0734 15.3832 44.1814" stroke="black" stroke-width="3" stroke-miterlimit="10" stroke-linecap="round" stroke-linejoin="round"/>
<path d="M71.1871 52.1278C71.1871 57.8039 55.9219 62.4077 37.1096 62.4077C18.2972 62.4077 3.03198 57.8039 3.03198 52.1278" stroke="black" stroke-width="3" stroke-miterlimit="10" stroke-linecap="round" stroke-linejoin="round"/>
<path d="M43.4116 37.7486C38.5343 30.2437 36.6658 24.0316 39.1361 21.572L48.7323 12.0804C52.7544 8.07566 66.8162 15.5491 80.1179 28.7931C93.4196 42.0372 100.957 56.038 96.9033 60.0428L87.2754 69.5343C85.2802 71.5209 80.8463 70.7011 75.2723 67.7684" stroke="black" stroke-width="3" stroke-miterlimit="10" stroke-linecap="round" stroke-linejoin="round"/>
<path d="M39.104 21.572C43.1262 17.5672 57.1879 25.0407 70.4896 38.2847C83.7913 51.5287 91.3289 65.5296 87.275 69.5343" stroke="black" stroke-width="3" stroke-miterlimit="10" stroke-linecap="round" stroke-linejoin="round"/>
<path d="M50.5058 50.0782C36.7291 50.0782 29.9516 43.5508 29.8566 41.848C29.8566 41.848 20.6404 42.9832 17.4734 50.0782" stroke="black" stroke-width="3" stroke-miterlimit="10" stroke-linecap="round" stroke-linejoin="round"/>
</svg>
