<svg data-name="Layer 1" xmlns="http://www.w3.org/2000/svg" viewBox="0 0 18 24.66"><path d="M1 14.66h16v2H1z"/><path d="M8 5.66h2v19H8z"/><path d="M15 24.66H3a3 3 0 0 1-3-3v-12a3 3 0 0 1 3-3h12a3 3 0 0 1 3 3v12a3 3 0 0 1-3 3zm-12-16a1 1 0 0 0-1 1v12a1 1 0 0 0 1 1h12a1 1 0 0 0 1-1v-12a1 1 0 0 0-1-1z"/><path d="M10 7.49H8.67l.18-1.14a8.08 8.08 0 0 1 2.32-5A4.29 4.29 0 0 1 14.29 0a2.61 2.61 0 0 1 1.83 1c.92 1.13 1.1 3-1.14 5A7.39 7.39 0 0 1 10 7.49zM14 2a2.76 2.76 0 0 0-1.57.82 5.16 5.16 0 0 0-1.41 2.62 4.64 4.64 0 0 0 2.6-1c.47-.41 1.51-1.46.9-2.22a.63.63 0 0 0-.41-.22z"/><path d="M8.06 7.49A7.39 7.39 0 0 1 3.09 6C.84 4.05 1 2.14 2 1a2.61 2.61 0 0 1 1.78-1A4.32 4.32 0 0 1 6.9 1.31a8.08 8.08 0 0 1 2.32 5l.17 1.14H8.06zM4 2a.61.61 0 0 0-.45.27c-.62.76.42 1.81.9 2.22A4.58 4.58 0 0 0 7 5.44a5.08 5.08 0 0 0-1.4-2.62A2.79 2.79 0 0 0 4 2z"/></svg>