<svg width="100" height="100" viewBox="0 0 100 100" fill="none" xmlns="http://www.w3.org/2000/svg">
<path d="M42.3824 46.4511L34.5823 38.651" stroke="black" stroke-width="3" stroke-miterlimit="10" stroke-linecap="round"/>
<path d="M54.8417 43.3101L48.6121 37.0805" stroke="black" stroke-width="3" stroke-miterlimit="10" stroke-linecap="round"/>
<path d="M57.9304 30.8509L50.1826 23.0508" stroke="black" stroke-width="3" stroke-miterlimit="10" stroke-linecap="round"/>
<path d="M70.3895 27.7623L64.1599 21.5327" stroke="black" stroke-width="3" stroke-miterlimit="10" stroke-linecap="round"/>
<path d="M42.3825 30.8509L37.7234 26.1917" stroke="black" stroke-width="3" stroke-miterlimit="10" stroke-linecap="round"/>
<path d="M57.9304 15.303L53.2712 10.5916" stroke="black" stroke-width="3" stroke-miterlimit="10" stroke-linecap="round"/>
<path d="M73.5306 15.303L65.7305 7.50294" stroke="black" stroke-width="3" stroke-miterlimit="10" stroke-linecap="round"/>
<path d="M82.8485 9.07344C88.0312 14.2561 81.7492 28.8616 68.8189 41.7919C55.9408 54.67 41.283 60.9519 36.1003 55.8216" stroke="black" stroke-width="3" stroke-miterlimit="10" stroke-linecap="round"/>
<path d="M30.5515 47.0793C28.981 51.2672 28.7193 55.0364 29.3998 58.1774C29.8709 60.3761 29.2427 62.6794 27.6199 64.3023L25.6306 66.2916C19.5057 72.4165 16.103 73.5682 8.25055 77.285C6.57537 78.0702 5.05723 79.3266 3.90554 81.0018C1.4451 84.6139 1.34041 89.4824 3.74849 93.1469C7.72706 99.2195 15.9983 99.8477 20.8145 94.9792C21.6521 94.1416 22.3326 93.1993 22.8561 92.1523C27.2011 83.5146 30.1327 80.426 36.9905 73.6205L37.8281 72.7829C39.1368 71.4742 40.8644 70.7413 42.6966 70.846C51.7007 71.3695 65.5734 63.7264 78.1896 51.1102C94.5227 34.7771 102.585 16.35 95.308 9.07344L92.167 5.93246C88.4502 2.21564 82.0112 0.592805 74.1587 3.47203" stroke="black" stroke-width="3" stroke-miterlimit="10" stroke-linecap="round"/>
</svg>
