<svg width="100" height="100" viewBox="0 0 100 100" fill="none" xmlns="http://www.w3.org/2000/svg">
<g clip-path="url(#clip0_1366:2687)">
<path fill-rule="evenodd" clip-rule="evenodd" d="M64.5176 -0.5C65.346 -0.5 66.0176 0.171573 66.0176 1V4.95163L68.1121 3.9049C68.8532 3.53457 69.7541 3.83509 70.1244 4.57614C70.4948 5.31718 70.1942 6.21813 69.4532 6.58846L66.0176 8.30539V13.4776L68.1121 12.4309C68.8532 12.0605 69.7541 12.3611 70.1244 13.1021C70.4948 13.8432 70.1942 14.7441 69.4532 15.1144L66.0176 16.8314V22.0036L68.1121 20.9569C68.8532 20.5866 69.7541 20.8871 70.1244 21.6281C70.4948 22.3692 70.1942 23.2701 69.4532 23.6404L66.0176 25.3574V63.4287H73.0805C73.909 63.4287 74.5805 64.1002 74.5805 64.9287V98.3467C74.5805 99.5406 73.6075 100.5 72.4244 100.5H56.6105C55.4273 100.5 54.4543 99.5406 54.4543 98.3467V64.9287C54.4543 64.1002 55.1259 63.4287 55.9543 63.4287H63.0176V26.8566L60.8901 27.9198C60.1491 28.2901 59.2481 27.9896 58.8778 27.2486C58.5075 26.5075 58.808 25.6066 59.549 25.2362L63.0176 23.5028V18.3306L60.8901 19.3938C60.1491 19.7641 59.2481 19.4636 58.8778 18.7225C58.5075 17.9815 58.808 17.0805 59.549 16.7102L63.0176 14.9768V9.80461L60.8901 10.8678C60.1491 11.2381 59.2481 10.9376 58.8778 10.1966C58.5075 9.45551 58.808 8.55457 59.549 8.18424L63.0176 6.45085V1C63.0176 0.171573 63.6892 -0.5 64.5176 -0.5ZM64.5176 66.4287H57.4543V97.5H71.5805V66.4287H64.5176ZM26.6326 39.3506C26.6326 38.5222 27.3041 37.8506 28.1326 37.8506H28.7654V32.3247H26C25.1716 32.3247 24.5 31.6531 24.5 30.8247C24.5 29.9963 25.1716 29.3247 26 29.3247H28.7654V24.422C28.7654 23.5936 29.437 22.922 30.2654 22.922H43.1264C43.9549 22.922 44.6264 23.5936 44.6264 24.422V29.3247H47.3915C48.2199 29.3247 48.8915 29.9963 48.8915 30.8247C48.8915 31.6531 48.2199 32.3247 47.3915 32.3247H44.6264V37.8506H45.2588C46.0872 37.8506 46.7588 38.5222 46.7588 39.3506V98.3466C46.7588 99.5405 45.7858 100.5 44.6026 100.5H28.7887C27.6056 100.5 26.6326 99.5405 26.6326 98.3466V39.3506ZM41.6264 29.3247H38.8284C37.9999 29.3247 37.3284 29.9963 37.3284 30.8247C37.3284 31.6531 37.9999 32.3247 38.8284 32.3247H41.6264V37.8506H31.7654V32.3247H34.5631C35.3915 32.3247 36.0631 31.6531 36.0631 30.8247C36.0631 29.9963 35.3915 29.3247 34.5631 29.3247H31.7654V25.922H41.6264V29.3247ZM30.2654 40.8506H43.1264H43.7588V97.5H29.6326V40.8506H30.2654Z" fill="black"/>
</g>
<defs>
<clipPath id="clip0_1366:2687">
<rect width="100" height="100" fill="white"/>
</clipPath>
</defs>
</svg>
