<svg width="100" height="100" viewBox="0 0 100 100" fill="none" xmlns="http://www.w3.org/2000/svg">
<path d="M9.08008 70.3431V46.1916H69.7217V70.3431" stroke="black" stroke-width="3" stroke-miterlimit="10" stroke-linecap="round" stroke-linejoin="round"/>
<path d="M98.0001 60.2852C98.0001 60.2852 92.3634 60.2852 89.9251 60.2852C87.4551 60.2852 76.2135 70.3431 73.7435 70.3431C71.2735 70.3431 5.02686 70.3431 5.02686 70.3431V78.3831C5.02686 84.1215 7.21185 86.4231 13.1018 86.4231C13.1018 86.4231 71.2735 86.4231 73.7435 86.4231C76.2135 86.4231 87.4551 76.3652 89.9251 76.3652C92.3951 76.3652 98.0001 76.3652 98.0001 76.3652" stroke="black" stroke-width="3" stroke-miterlimit="10" stroke-linecap="round" stroke-linejoin="round"/>
<path d="M19.1816 46.1916V64.321" stroke="black" stroke-width="3" stroke-miterlimit="10" stroke-linecap="round" stroke-linejoin="round"/>
<path d="M29.2834 46.1916V64.321" stroke="black" stroke-width="3" stroke-miterlimit="10" stroke-linecap="round" stroke-linejoin="round"/>
<path d="M39.3848 46.1916V64.321" stroke="black" stroke-width="3" stroke-miterlimit="10" stroke-linecap="round" stroke-linejoin="round"/>
<path d="M49.4868 46.1916V64.321" stroke="black" stroke-width="3" stroke-miterlimit="10" stroke-linecap="round" stroke-linejoin="round"/>
<path d="M59.6201 46.1916V64.321" stroke="black" stroke-width="3" stroke-miterlimit="10" stroke-linecap="round" stroke-linejoin="round"/>
<path d="M69.7216 46.1916C81.8499 30.4268 72.7616 18.7294 65.6683 14C60.3483 23.049 52.0833 26.0758 42.3616 26.0758C32.7033 26.0758 23.4883 22.04 15.1283 22.04C5.40666 22.04 3 30.616 3 34.1158C3 40.264 4.77334 43.9214 9.08 46.1916" stroke="black" stroke-width="3" stroke-miterlimit="10" stroke-linecap="round" stroke-linejoin="round"/>
</svg>
