<svg width="100" height="100" viewBox="0 0 100 100" fill="none" xmlns="http://www.w3.org/2000/svg">
<path d="M27.9025 39.4223C15.7656 43.7208 7 55.3521 7 68.9219C7 82.0702 15.1756 93.3644 26.7226 98H49.9008C61.4478 93.3644 69.6234 82.0702 69.6234 68.9219C69.6234 55.2678 60.8578 43.7208 48.7208 39.4223" stroke="black" stroke-width="3" stroke-miterlimit="10" stroke-linecap="round" stroke-linejoin="round"/>
<path d="M61.2793 68.9219C61.2793 61.0834 57.3179 54.0878 51.3337 49.9579" stroke="black" stroke-width="3" stroke-miterlimit="10" stroke-linecap="round" stroke-linejoin="round"/>
<path d="M56.0535 83.5031C57.5706 81.6488 58.8349 79.4574 59.762 77.1818" stroke="black" stroke-width="3" stroke-miterlimit="10" stroke-linecap="round" stroke-linejoin="round"/>
<path d="M27.8189 39.5464H48.7214V22.8581L27.8189 22.8581L27.8189 39.5464Z" stroke="black" stroke-width="3" stroke-miterlimit="10" stroke-linecap="round" stroke-linejoin="round"/>
<path d="M34.1402 22.9H42.4844V8.31881L34.1402 8.31881V22.9Z" stroke="black" stroke-width="3" stroke-miterlimit="10" stroke-linecap="round" stroke-linejoin="round"/>
<path d="M48.7209 14.5584H42.4839" stroke="black" stroke-width="3" stroke-miterlimit="10" stroke-linecap="round" stroke-linejoin="round"/>
<path d="M48.7207 15.5698C48.7207 15.5698 54.9578 29.1396 70.6347 29.1396C84.2045 29.1396 92.5486 23.0711 92.5486 15.5698C92.5486 8.06848 84.2045 2 70.6347 2C55.042 2 48.7207 15.5698 48.7207 15.5698Z" stroke="black" stroke-width="3" stroke-miterlimit="10" stroke-linecap="round" stroke-linejoin="round"/>
</svg>
