<svg width="18" height="18" viewBox="0 0 18 18" fill="none" xmlns="http://www.w3.org/2000/svg">
<path fill-rule="evenodd" clip-rule="evenodd" d="M1.5 4.75C1.5 4.61193 1.61193 4.5 1.75 4.5H9.75C9.88807 4.5 10 4.61193 10 4.75V10.75C10 11.1642 10.3358 11.5 10.75 11.5C11.1642 11.5 11.5 11.1642 11.5 10.75V7.54773H13.162C13.2227 7.55283 13.2809 7.57492 13.3297 7.61158C13.3819 7.6507 13.4214 7.70546 13.4425 7.76714C13.5422 8.05716 13.7235 8.5729 13.879 9.01354C13.9569 9.23443 14.0286 9.43734 14.0809 9.58503L14.166 9.82535C14.2721 10.1247 14.5553 10.3247 14.8729 10.3247H16.3624V12.605H15.6992C15.6861 12.5672 15.6719 12.5298 15.6567 12.4927C15.544 12.2177 15.3779 11.9677 15.168 11.7572C14.9582 11.5467 14.7087 11.3799 14.434 11.2664C14.16 11.1531 13.8663 11.0951 13.5698 11.0957L13.572 11.0957H13.5676L13.5698 11.0957C13.1234 11.0948 12.6868 11.2262 12.315 11.4732C11.9425 11.7207 11.6519 12.0731 11.4798 12.4858C11.4634 12.5252 11.4482 12.5649 11.4341 12.605H6.61026C6.59713 12.5667 6.58295 12.5288 6.56775 12.4912C6.4556 12.2141 6.28947 11.962 6.07901 11.7497C5.86854 11.5374 5.61796 11.369 5.34184 11.2544C5.06608 11.14 4.77033 11.0814 4.47174 11.0822C4.02612 11.0824 3.5905 11.2144 3.21969 11.4616C2.84857 11.709 2.55898 12.0607 2.38739 12.4724C2.36916 12.5161 2.35234 12.5604 2.33695 12.605H1.5V4.75ZM0.113099 13.6462C0.0414156 13.5313 0 13.3955 0 13.25V4.75C0 3.7835 0.783502 3 1.75 3H9.75C10.7165 3 11.5 3.7835 11.5 4.75V6.04773H13.1843C13.1958 6.04773 13.2073 6.048 13.2188 6.04853C13.5846 6.0654 13.9368 6.19189 14.2297 6.41158C14.5225 6.63117 14.7425 6.93373 14.8612 7.27995C14.9586 7.56334 15.1377 8.073 15.2935 8.5145L15.403 8.82472H16.3658C16.5381 8.81312 16.7113 8.83341 16.8765 8.88474C17.0558 8.94042 17.222 9.03148 17.3654 9.15248C17.5089 9.27349 17.6266 9.42203 17.7116 9.58936C17.7967 9.75665 17.8473 9.93931 17.8605 10.1265C17.8618 10.1441 17.8624 10.1618 17.8624 10.1794V13.3334C17.8626 13.3406 17.8627 13.3478 17.8627 13.355C17.8627 13.7175 17.6055 14.02 17.2636 14.0898C17.2422 14.0942 17.2205 14.0976 17.1985 14.1001C17.1703 14.1034 17.1415 14.105 17.1124 14.105L17.1038 14.105H15.6967C15.6342 14.2827 15.5494 14.4528 15.4435 14.6111C15.1949 14.9828 14.8417 15.2724 14.4284 15.4432C14.0152 15.614 13.5606 15.6584 13.1221 15.5707C12.6836 15.4829 12.281 15.2671 11.9653 14.9504C11.7264 14.7108 11.5454 14.4216 11.434 14.105H6.59951C6.53559 14.283 6.44922 14.4533 6.34176 14.6115C6.09109 14.9804 5.73683 15.2668 5.32365 15.4348C4.91045 15.6027 4.4568 15.6446 4.01985 15.5551C3.58291 15.4657 3.1822 15.2489 2.86821 14.9322C2.63499 14.6969 2.45737 14.4142 2.34637 14.105H0.804443C0.493525 14.105 0.226796 13.9158 0.113099 13.6462ZM3.71782 13.355C3.71782 13.3718 3.71726 13.3886 3.71616 13.4051C3.71847 13.4326 3.72228 13.46 3.72761 13.4873C3.75637 13.6344 3.82803 13.7697 3.93356 13.8762C4.03909 13.9827 4.17377 14.0555 4.32065 14.0856C4.46752 14.1157 4.62 14.1016 4.75888 14.0451C4.89776 13.9887 5.01683 13.8924 5.10108 13.7684C5.1848 13.6452 5.23042 13.5001 5.23231 13.3512L5.23239 13.343C5.23316 13.2439 5.21444 13.1457 5.17729 13.0539C5.13974 12.9611 5.08412 12.8767 5.01366 12.8056C4.9432 12.7346 4.85931 12.6782 4.76686 12.6398C4.67439 12.6015 4.57524 12.5819 4.47516 12.5822L4.47291 12.5822C4.32298 12.5822 4.17643 12.6265 4.0517 12.7097C3.92696 12.7928 3.82962 12.9111 3.77195 13.0494C3.73969 13.1268 3.72064 13.2086 3.71516 13.2914C3.71692 13.3124 3.71782 13.3336 3.71782 13.355ZM13.861 12.6526C13.7694 12.6147 13.6712 12.5954 13.5721 12.5957H13.5676C13.4173 12.5953 13.2703 12.6394 13.1451 12.7226C13.0199 12.8058 12.9222 12.9242 12.8644 13.063C12.8065 13.2017 12.7912 13.3545 12.8202 13.5019C12.8493 13.6494 12.9214 13.7849 13.0275 13.8913C13.1337 13.9978 13.269 14.0703 13.4164 14.0998C13.5637 14.1293 13.7165 14.1144 13.8554 14.057C13.9944 13.9996 14.1131 13.9022 14.1966 13.7773C14.2802 13.6524 14.3248 13.5054 14.3248 13.3551L14.3248 13.3507C14.3254 13.2515 14.3063 13.1533 14.2687 13.0616C14.2312 12.9699 14.1758 12.8865 14.1058 12.8163C14.0358 12.7461 13.9526 12.6905 13.861 12.6526Z" fill="black"/>
</svg>
