<svg width="31" height="31" viewBox="0 0 31 31" fill="none" xmlns="http://www.w3.org/2000/svg">
<path fill-rule="evenodd" clip-rule="evenodd" d="M6.73713 1.39503V4.95124H18.6638V1.39503H6.73713ZM5.80713 1.12636C5.80713 0.759663 6.10596 0.465027 6.46932 0.465027H18.9316C19.2949 0.465027 19.5938 0.759663 19.5938 1.12636V5.41624C19.5938 5.67306 19.3856 5.88124 19.1288 5.88124H6.27213C6.01532 5.88124 5.80713 5.67306 5.80713 5.41624V1.12636Z" fill="black"/>
<path fill-rule="evenodd" clip-rule="evenodd" d="M8.19503 4.95117C8.45184 4.95117 8.66003 5.15936 8.66003 5.41617C8.66003 6.46252 8.39463 7.23337 7.9791 7.85413C7.58 8.45036 7.05386 8.88707 6.58475 9.27645L6.56453 9.29323C6.07493 9.69967 5.64674 10.0591 5.32877 10.5341C5.02148 10.9931 4.805 11.5819 4.805 12.4547V27.8178C4.805 28.9727 5.74846 29.915 6.91331 29.915H18.4882C19.6531 29.915 20.5965 28.9727 20.5965 27.8178V26.5809C20.5965 26.3241 20.8047 26.1159 21.0615 26.1159C21.3183 26.1159 21.5265 26.3241 21.5265 26.5809V27.8178C21.5265 29.4901 20.1629 30.845 18.4882 30.845H6.91331C5.23865 30.845 3.875 29.4901 3.875 27.8178V12.4547C3.875 11.4084 4.1404 10.6375 4.55593 10.0168C4.95503 9.42053 5.48116 8.98383 5.95028 8.59445C5.95703 8.58885 5.96377 8.58325 5.9705 8.57766C6.4601 8.17123 6.88829 7.81183 7.20626 7.33681C7.51355 6.87775 7.73003 6.28899 7.73003 5.41617C7.73003 5.15936 7.93822 4.95117 8.19503 4.95117Z" fill="black"/>
<path fill-rule="evenodd" clip-rule="evenodd" d="M17.2067 4.95117C17.4635 4.95117 17.6717 5.15936 17.6717 5.41617C17.6717 6.28899 17.8882 6.87775 18.1955 7.33681C18.5134 7.81183 18.9416 8.17123 19.4312 8.57766C19.438 8.58325 19.4447 8.58885 19.4515 8.59445C19.9206 8.98383 20.4467 9.42053 20.8458 10.0168C21.2613 10.6375 21.5267 11.4084 21.5267 12.4547C21.5267 12.7115 21.3185 12.9197 21.0617 12.9197C20.8049 12.9197 20.5967 12.7115 20.5967 12.4547C20.5967 11.5819 20.3802 10.9931 20.073 10.5341C19.755 10.0591 19.3268 9.69966 18.8372 9.29323L18.817 9.27644C18.3479 8.88707 17.8217 8.45036 17.4226 7.85413C17.0071 7.23336 16.7417 6.46252 16.7417 5.41617C16.7417 5.15936 16.9499 4.95117 17.2067 4.95117Z" fill="black"/>
<path fill-rule="evenodd" clip-rule="evenodd" d="M20.2502 14.5303C21.9014 12.8863 24.4942 12.674 26.0431 14.2162C27.5936 15.7599 27.3794 18.3451 25.7276 19.9897L20.2754 25.4183C18.6242 27.0623 16.0313 27.2746 14.4824 25.7324C12.932 24.1887 13.1462 21.6036 14.7979 19.9589L20.2502 14.5303ZM25.3869 14.8752C24.2738 13.7669 22.2722 13.8295 20.9064 15.1893L15.4541 20.618C14.0889 21.9772 14.0271 23.9667 15.1386 25.0734C16.2518 26.1817 18.2534 26.1192 19.6192 24.7593L25.0714 19.3307C26.4366 17.9714 26.4985 15.9819 25.3869 14.8752Z" fill="black"/>
<path fill-rule="evenodd" clip-rule="evenodd" d="M17.5178 17.251C17.699 17.069 17.9934 17.0684 18.1754 17.2496L22.9966 22.0499C23.1786 22.2311 23.1793 22.5255 22.9981 22.7075C22.8169 22.8895 22.5225 22.8901 22.3405 22.7089L17.5192 17.9086C17.3372 17.7274 17.3366 17.433 17.5178 17.251Z" fill="black"/>
<path fill-rule="evenodd" clip-rule="evenodd" d="M3.875 15.0169C3.875 14.7601 4.08319 14.5519 4.34 14.5519H10.7782C11.035 14.5519 11.2432 14.7601 11.2432 15.0169V23.3415C11.2432 23.5983 11.035 23.8065 10.7782 23.8065H4.34C4.08319 23.8065 3.875 23.5983 3.875 23.3415C3.875 23.0847 4.08319 22.8765 4.34 22.8765H10.3132V15.4819H4.34C4.08319 15.4819 3.875 15.2738 3.875 15.0169Z" fill="black"/>
</svg>
